#!OML:ASF E:\motion texture\Top Level 1\Subject 1\Session 1\male.ASF
:FULLY-SPECIFIED
:DEGREES
475
root -28.2588 17.8179 2.87821 147.323 -79.5298 -140.677
lowerback -2.9778 5.77868 5.21139
upperback -1.38441 7.51742 0.954274
thorax 0.770002 3.7328 -1.60249
lowerneck -16.8964 1.4913 -2.86591
upperneck 17.8423 1.89365 3.97625
head 8.25518 1.08616 2.02771
rclavicle -1.35174e-014 3.37934e-015
rhumerus -16.7859 18.4195 -82.933
rradius 70.7912
rwrist 22.5262
rhand -21.7604 -24.7832
rfingers 7.12502
rthumb 4.64011 -54.7124
lclavicle -1.35174e-014 3.37934e-015
lhumerus -41.7591 16.292 75.9246
lradius 44.0314
lwrist -17.8199
lhand -15.7016 27.2966
lfingers 7.12502
lthumb 10.488 57.015
rfemur -9.17557 -2.233 27.0015
rtibia 47.5282
rfoot 0.459402 -8.762
rtoes -3.69905
lfemur -25.3146 -1.3972 -13.1564
ltibia 22.0152
lfoot -3.42592 7.0854
ltoes -0.739177
476
root -28.4236 17.8234 2.87232 147.411 -79.9177 -140.917
lowerback -2.92966 5.72528 4.95556
upperback -1.35367 7.45964 0.863229
thorax 0.751197 3.70622 -1.56388
lowerneck -16.8648 1.49151 -2.88699
upperneck 17.8242 1.88295 4.05241
head 8.24274 1.08741 2.05472
rclavicle 1.36354e-014 -1.59028e-015
rhumerus -16.3962 18.9928 -83.0289
rradius 71.4921
rwrist 23.1307
rhand -22.1813 -24.6455
rfingers 7.12502
rthumb 4.23373 -54.5832
lclavicle 1.36354e-014 -1.59028e-015
lhumerus -41.0455 15.5783 76.643
lradius 44.8031
lwrist -17.7811
lhand -15.9017 27.2657
lfingers 7.12502
lthumb 10.295 56.9937
rfemur -10.0678 -2.56033 26.5816
rtibia 48.9355
rfoot 1.08346 -9.18357
rtoes -3.30236
lfemur -24.7441 -1.5045 -13.6708
ltibia 22.242
lfoot -3.62551 6.71258
ltoes -0.325694
477
root -28.5875 17.8292 2.86602 147.44 -80.3204 -141.096
lowerback -2.88114 5.66709 4.69898
upperback -1.32423 7.39507 0.773244
thorax 0.730446 3.67606 -1.524
lowerneck -16.8326 1.48723 -2.90985
upperneck 17.8047 1.86617 4.13043
head 8.22996 1.08583 2.0819
rclavicle -6.74688e-014 -4.77083e-015
rhumerus -15.9736 19.5732 -83.1022
rradius 72.1816
rwrist 23.7294
rhand -22.6076 -24.5099
rfingers 7.12502
rthumb 3.82205 -54.4554
lclavicle -6.74688e-014 -4.77083e-015
lhumerus -40.299 14.8315 77.3696
lradius 45.5957
lwrist -17.7568
lhand -16.117 27.2335
lfingers 7.12502
lthumb 10.0873 56.9717
rfemur -10.9883 -2.895 26.1743
rtibia 50.2846
rfoot 1.63986 -9.61129
rtoes -2.85973
lfemur -24.1514 -1.62094 -14.1736
ltibia 22.4299
lfoot -3.85155 6.33178
ltoes 0.0533011
478
root -28.7503 17.8353 2.85926 147.402 -80.7357 -141.204
lowerback -2.83318 5.60438 4.44271
upperback -1.29581 7.32395 0.685249
thorax 0.708638 3.64245 -1.48233
lowerneck -16.8029 1.47837 -2.93789
upperneck 17.7862 1.84369 4.21229
head 8.21811 1.08159 2.11062
rclavicle 2.32951e-015 2.78299e-015
rhumerus -15.5163 20.1594 -83.1501
rradius 72.8615
rwrist 24.3206
rhand -23.0384 -24.3788
rfingers 7.12502
rthumb 3.40602 -54.3313
lclavicle 2.32951e-015 2.78299e-015
lhumerus -39.5199 14.0562 78.1004
lradius 46.4075
lwrist -17.7428
lhand -16.3399 27.2027
lfingers 7.12502
lthumb 9.87226 56.9512
rfemur -11.9346 -3.23621 25.7821
rtibia 51.5675
rfoot 2.12231 -10.0437
rtoes -2.38418
lfemur -23.5395 -1.74307 -14.6632
ltibia 22.5795
lfoot -4.10391 5.94213
ltoes 0.40429
479
root -28.9124 17.8416 2.85212 147.283 -81.1663 -141.231
lowerback -2.78234 5.53646 4.18974
upperback -1.26989 7.24556 0.596385
thorax 0.683087 3.60497 -1.44382
lowerneck -16.7734 1.46434 -2.97037
upperneck 17.7694 1.81386 4.30043
head 8.20707 1.07418 2.14137
rclavicle -3.21161e-014 -1.64991e-014
rhumerus -15.0264 20.7472 -83.1749
rradius 73.5322
rwrist 24.9024
rhand -23.468 -24.2556
rfingers 7.12502
rthumb 2.99109 -54.2144
lclavicle -3.21161e-014 -1.64991e-014
lhumerus -38.7128 13.2502 78.8283
lradius 47.2398
lwrist -17.7287
lhand -16.5591 27.179
lfingers 7.12502
lthumb 9.66076 56.9375
rfemur -12.8964 -3.58773 25.4016
rtibia 52.7714
rfoot 2.52503 -10.4781
rtoes -1.89846
lfemur -22.9059 -1.87342 -15.1426
ltibia 22.6896
lfoot -4.37922 5.54507
ltoes 0.737244
480
root -29.0733 17.8481 2.84453 147.067 -81.6099 -141.155
lowerback -2.73148 5.46384 3.93973
upperback -1.24532 7.16033 0.508455
thorax 0.65638 3.56392 -1.40605
lowerneck -16.7455 1.4448 -3.00484
upperneck 17.7522 1.77686 4.38934
head 8.19652 1.0633 2.17191
rclavicle 1.2424e-017 -6.75868e-015
rhumerus -14.4978 21.3358 -83.1711
rradius 74.1939
rwrist 25.4699
rhand -23.8991 -24.1355
rfingers 7.12502
rthumb 2.57481 -54.0997
lclavicle 1.2424e-017 -6.75868e-015
lhumerus -37.8756 12.4156 79.5534
lradius 48.0942
lwrist -17.7051
lhand -16.7801 27.1599
lfingers 7.12502
lthumb 9.44756 56.9282
rfemur -13.8748 -3.94689 25.0369
rtibia 53.8903
rfoot 2.84901 -10.9173
rtoes -1.39503
lfemur -22.2575 -2.00872 -15.6082
ltibia 22.7638
lfoot -4.6726 5.14461
ltoes 1.05697
481
root -29.2333 17.8545 2.83646 146.732 -82.0651 -140.956
lowerback -2.67948 5.38703 3.6937
upperback -1.2231 7.06899 0.422008
thorax 0.62698 3.51961 -1.36912
lowerneck -16.7202 1.42008 -3.04586
upperneck 17.7385 1.73309 4.4845
head 8.18778 1.04938 2.20494
rclavicle 1.18954e-013 -4.57205e-015
rhumerus -13.9329 21.923 -83.1369
rradius 74.8475
rwrist 26.0264
rhand -24.336 -24.0269
rfingers 7.12502
rthumb 2.15288 -53.9958
lclavicle 1.18954e-013 -4.57205e-015
lhumerus -37.0114 11.5528 80.2728
lradius 48.9693
lwrist -17.6615
lhand -16.9921 27.1545
lfingers 7.12502
lthumb 9.24293 56.9319
rfemur -14.8635 -4.31216 24.6893
rtibia 54.9149
rfoot 3.09534 -11.3604
rtoes -0.878183
lfemur -21.5951 -2.14806 -16.0588
ltibia 22.8035
lfoot -4.98319 4.74703
ltoes 1.36501
482
root -29.3922 17.861 2.8279 146.251 -82.5315 -140.605
lowerback -2.62797 5.30609 3.45198
upperback -1.20278 6.97152 0.336797
thorax 0.59639 3.47208 -1.33324
lowerneck -16.6952 1.38973 -3.09059
upperneck 17.7252 1.68182 4.58287
head 8.17959 1.03195 2.23884
rclavicle 2.62396e-014 -7.55382e-015
rhumerus -13.3283 22.5047 -83.0701
rradius 75.4929
rwrist 26.566
rhand -24.7741 -23.9251
rfingers 7.12502
rthumb 1.72978 -53.8979
lclavicle 2.62396e-014 -7.55382e-015
lhumerus -36.1202 10.663 80.984
lradius 49.8647
lwrist -17.5867
lhand -17.1934 27.1585
lfingers 7.12502
lthumb 9.0487 56.9444
rfemur -15.8589 -4.68399 24.3588
rtibia 55.8372
rfoot 3.2626 -11.8094
rtoes -0.354277
lfemur -20.9221 -2.28963 -16.4945
ltibia 22.8149
lfoot -5.31339 4.35459
ltoes 1.62763
483
root -29.55 17.8673 2.81879 145.581 -83.0087 -140.059
lowerback -2.57626 5.22074 3.21576
upperback -1.18543 6.86757 0.253303
thorax 0.563196 3.42114 -1.2987
lowerneck -16.6692 1.35364 -3.13938
upperneck 17.7129 1.62305 4.68384
head 8.17186 1.01091 2.27343
rclavicle 4.4565e-014 -1.98785e-015
rhumerus -12.6864 23.0781 -82.9703
rradius 76.132
rwrist 27.0869
rhand -25.2147 -23.8363
rfingers 7.12502
rthumb 1.30418 -53.812
lclavicle 4.4565e-014 -1.98785e-015
lhumerus -35.2042 9.74815 81.6845
lradius 50.7799
lwrist -17.4698
lhand -17.3811 27.1626
lfingers 7.12502
lthumb 8.86759 56.9563
rfemur -16.8571 -5.06229 24.047
rtibia 56.6499
rfoot 3.35228 -12.265
rtoes 0.185162
lfemur -20.2421 -2.43166 -16.9145
ltibia 22.8034
lfoot -5.66283 3.96178
ltoes 1.85356
484
root -29.7067 17.8734 2.80913 144.666 -83.4939 -139.261
lowerback -2.52408 5.13206 2.98703
upperback -1.16989 6.75851 0.172456
thorax 0.528678 3.3675 -1.26551
lowerneck -16.6448 1.31068 -3.19457
upperneck 17.7015 1.55564 4.78888
head 8.16511 0.985739 2.30951
rclavicle 2.53947e-014 2.18663e-015
rhumerus -12.0044 23.6363 -82.8337
rradius 76.7648
rwrist 27.5841
rhand -25.6538 -23.7568
rfingers 7.12502
rthumb 0.880137 -53.7348
lclavicle 2.53947e-014 2.18663e-015
lhumerus -34.2602 8.81008 82.3748
lradius 51.7115
lwrist -17.2966
lhand -17.5476 27.1719
lfingers 7.12502
lthumb 8.70689 56.9723
rfemur -17.8531 -5.44547 23.7558
rtibia 57.3463
rfoot 3.3673 -12.7258
rtoes 0.732383
lfemur -19.5547 -2.57453 -17.3158
ltibia 22.7692
lfoot -6.02143 3.57058
ltoes 2.05508
485
root -29.8623 17.8793 2.79895 143.435 -83.9857 -138.141
lowerback -2.47261 5.03974 2.76676
upperback -1.15614 6.64389 0.0947226
thorax 0.493537 3.31096 -1.23362
lowerneck -16.6204 1.26127 -3.25557
upperneck 17.6906 1.48013 4.89722
head 8.15897 0.956632 2.34677
rclavicle 1.01753e-014 4.37326e-015
rhumerus -11.2808 24.1793 -82.658
rradius 77.3917
rwrist 28.051
rhand -26.0877 -23.6912
rfingers 7.12502
rthumb 0.461069 -53.6704
lclavicle 1.01753e-014 4.37326e-015
lhumerus -33.2903 7.85095 83.0528
lradius 52.6584
lwrist -17.0557
lhand -17.6826 27.1795
lfingers 7.12502
lthumb 8.57666 56.9853
rfemur -18.8422 -5.83345 23.485
rtibia 57.9193
rfoot 3.30971 -13.1923
rtoes 1.29929
lfemur -18.8633 -2.71876 -17.6979
ltibia 22.7165
lfoot -6.38722 3.18979
ltoes 2.22811
486
root -30.0169 17.8847 2.78826 141.81 -84.481 -136.62
lowerback -2.42133 4.94397 2.55538
upperback -1.14479 6.52398 0.0198452
thorax 0.456973 3.25165 -1.20358
lowerneck -16.5945 1.20581 -3.32034
upperneck 17.6816 1.39678 5.00705
head 8.15363 0.923639 2.38429
rclavicle -3.75827e-014 8.15017e-015
rhumerus -10.518 24.7033 -82.444
rradius 78.013
rwrist 28.4853
rhand -26.5139 -23.6318
rfingers 7.12502
rthumb 0.0494405 -53.6115
lclavicle -3.75827e-014 8.15017e-015
lhumerus -32.2968 6.87355 83.7162
lradius 53.6188
lwrist -16.7374
lhand -17.781 27.1889
lfingers 7.12502
lthumb 8.48164 56.9986
rfemur -19.8187 -6.22393 23.2335
rtibia 58.362
rfoot 3.18375 -13.6612
rtoes 1.87774
lfemur -18.1677 -2.86493 -18.0607
ltibia 22.6458
lfoot -6.76093 2.82661
ltoes 2.36664
487
root -30.1706 17.8896 2.77705 139.67 -84.978 -134.576
lowerback -2.37439 4.8451 2.35025
upperback -1.13377 6.39921 -0.0510378
thorax 0.423022 3.18987 -1.17229
lowerneck -16.5673 1.14388 -3.38815
upperneck 17.6724 1.30544 5.11587
head 8.14855 0.886507 2.42107
rclavicle -9.81499e-015 -6.55989e-015
rhumerus -9.71261 25.2052 -82.1874
rradius 78.6295
rwrist 28.8817
rhand -26.9312 -23.5858
rfingers 7.12502
rthumb -0.353684 -53.5652
lclavicle -9.81499e-015 -6.55989e-015
lhumerus -31.2738 5.88148 84.3669
lradius 54.5858
lwrist -16.3332
lhand -17.8403 27.1956
lfingers 7.12502
lthumb 8.42448 57.0076
rfemur -20.7807 -6.61623 23.0002
rtibia 58.6706
rfoot 2.99364 -14.1297
rtoes 2.45574
lfemur -17.4722 -3.01416 -18.4046
ltibia 22.5598
lfoot -7.14474 2.48024
ltoes 2.48168
488
root -30.3232 17.8939 2.76527 136.84 -85.4714 -131.835
lowerback -2.32463 4.74285 2.155
upperback -1.12654 6.26942 -0.119813
thorax 0.384756 3.12544 -1.1445
lowerneck -16.5402 1.07537 -3.46113
upperneck 17.6666 1.20533 5.22871
head 8.14514 0.845212 2.45915
rclavicle 2.54072e-014 3.18055e-015
rhumerus -8.87081 25.6783 -81.8949
rradius 79.2427
rwrist 29.2323
rhand -27.3302 -23.5515
rfingers 7.12502
rthumb -0.739001 -53.5299
lclavicle 2.54072e-014 3.18055e-015
lhumerus -30.2283 4.87334 85.0003
lradius 55.5582
lwrist -15.8328
lhand -17.8669 27.2025
lfingers 7.12502
lthumb 8.39874 57.0156
rfemur -21.7235 -7.00819 22.7855
rtibia 58.8406
rfoot 2.74554 -14.5956
rtoes 3.03639
lfemur -16.779 -3.16639 -18.7279
ltibia 22.4626
lfoot -7.53923 2.15141
ltoes 2.55736
